<svg width="17" height="18" viewBox="0 0 17 18" fill="none" xmlns="http://www.w3.org/2000/svg">
<path d="M3.55556 6H12.4444M3.55556 10H8M16 17L13.0451 15.3378C12.8211 15.2118 12.7091 15.1488 12.5916 15.1044C12.4875 15.065 12.3802 15.0365 12.2713 15.0193C12.1486 15 12.0234 15 11.773 15H2.84444C1.84879 15 1.35097 15 0.970684 14.782C0.636169 14.5903 0.364204 14.2843 0.193769 13.908C-6.62274e-08 13.4802 0 12.9201 0 11.8V4.2C0 3.07989 -6.62274e-08 2.51984 0.193769 2.09202C0.364204 1.71569 0.636169 1.40973 0.970684 1.21799C1.35097 1 1.8488 1 2.84444 1H13.1556C14.1512 1 14.6491 1 15.0293 1.21799C15.3638 1.40973 15.6358 1.71569 15.8062 2.09202C16 2.51984 16 3.0799 16 4.2V17Z" stroke="#F1FADA" stroke-width="0.928" stroke-linecap="round" stroke-linejoin="round"/>
</svg>
