<svg width="40" height="40" viewBox="0 0 40 40" fill="none" xmlns="http://www.w3.org/2000/svg">
<path d="M11.25 20C10.2554 20 9.30161 19.6049 8.59835 18.9017C7.89509 18.1984 7.5 17.2446 7.5 16.25C7.5 15.2554 7.89509 14.3016 8.59835 13.5983C9.30161 12.8951 10.2554 12.5 11.25 12.5C12.2446 12.5 13.1984 12.8951 13.9017 13.5983C14.6049 14.3016 15 15.2554 15 16.25C15 17.2446 14.6049 18.1984 13.9017 18.9017C13.1984 19.6049 12.2446 20 11.25 20ZM23.75 20C22.7554 20 21.8016 19.6049 21.0983 18.9017C20.3951 18.1984 20 17.2446 20 16.25C20 15.2554 20.3951 14.3016 21.0983 13.5983C21.8016 12.8951 22.7554 12.5 23.75 12.5C24.7446 12.5 25.6984 12.8951 26.4017 13.5983C27.1049 14.3016 27.5 15.2554 27.5 16.25C27.5 17.2446 27.1049 18.1984 26.4017 18.9017C25.6984 19.6049 24.7446 20 23.75 20ZM36.25 20C35.2554 20 34.3016 19.6049 33.5983 18.9017C32.8951 18.1984 32.5 17.2446 32.5 16.25C32.5 15.2554 32.8951 14.3016 33.5983 13.5983C34.3016 12.8951 35.2554 12.5 36.25 12.5C37.2446 12.5 38.1984 12.8951 38.9017 13.5983C39.6049 14.3016 40 15.2554 40 16.25C40 17.2446 39.6049 18.1984 38.9017 18.9017C38.1984 19.6049 37.2446 20 36.25 20Z" fill="black"/>
</svg>
